<svg xmlns="http://www.w3.org/2000/svg" xmlns:xlink="http://www.w3.org/1999/xlink" width="304" zoomAndPan="magnify" viewBox="0 0 228 227.999995" height="304" preserveAspectRatio="xMidYMid meet" version="1.2"><defs><clipPath id="1a1f201af1"><path d="M 101 23.789062 L 126 23.789062 L 126 71 L 101 71 Z M 101 23.789062 "/></clipPath><clipPath id="75061f5440"><path d="M 18.425781 93 L 58 93 L 58 115 L 18.425781 115 Z M 18.425781 93 "/></clipPath><clipPath id="036d2f6727"><path d="M 169 93 L 208.925781 93 L 208.925781 115 L 169 115 Z M 169 93 "/></clipPath><clipPath id="f64643c7f5"><path d="M 99 102 L 129 102 L 129 203.789062 L 99 203.789062 Z M 99 102 "/></clipPath></defs><g id="e17a1ae525"><g clip-rule="nonzero" clip-path="url(#1a1f201af1)"><path style=" stroke:none;fill-rule:nonzero;fill:#4b5563;fill-opacity:1;" d="M 114.882812 70.414062 C 117.984375 67.292969 125.988281 58.1875 125.988281 47.441406 C 125.988281 36.699219 117.984375 27.59375 114.882812 24.472656 C 114.207031 23.792969 113.144531 23.792969 112.46875 24.472656 C 109.367188 27.59375 101.359375 36.699219 101.359375 47.441406 C 101.359375 58.1875 109.367188 67.292969 112.46875 70.414062 C 113.144531 71.09375 114.207031 71.09375 114.882812 70.414062 Z M 114.882812 70.414062 "/></g><path style=" stroke:none;fill-rule:nonzero;fill:#4b5563;fill-opacity:1;" d="M 42.519531 79.609375 C 50.890625 86.347656 63.003906 85.816406 67.378906 85.359375 C 68.332031 85.257812 69 84.429688 68.894531 83.476562 C 68.402344 79.101562 66.332031 67.15625 57.960938 60.421875 C 49.589844 53.6875 37.476562 54.21875 33.101562 54.675781 C 32.148438 54.773438 31.480469 55.605469 31.585938 56.554688 C 32.074219 60.929688 34.148438 72.875 42.519531 79.609375 Z M 42.519531 79.609375 "/><path style=" stroke:none;fill-rule:nonzero;fill:#4b5563;fill-opacity:1;" d="M 88.132812 67.917969 C 89.0625 68.195312 90.011719 67.671875 90.265625 66.730469 C 91.292969 62.960938 93.222656 53.363281 88.96875 45.710938 C 84.714844 38.0625 75.539062 34.636719 71.796875 33.519531 C 70.863281 33.242188 69.917969 33.765625 69.664062 34.707031 C 68.636719 38.472656 66.707031 48.074219 70.960938 55.726562 C 75.214844 63.375 84.390625 66.800781 88.132812 67.917969 Z M 88.132812 67.917969 "/><path style=" stroke:none;fill-rule:nonzero;fill:#4b5563;fill-opacity:1;" d="M 81.972656 76.214844 C 81.007812 76.453125 80.460938 77.425781 80.753906 78.375 C 81.695312 81.386719 84.222656 87.679688 89.589844 90.699219 C 94.953125 93.722656 101.644531 92.628906 104.707031 91.871094 C 105.671875 91.632812 106.21875 90.65625 105.925781 89.710938 C 104.984375 86.699219 102.457031 80.40625 97.089844 77.386719 C 91.726562 74.363281 85.039062 75.457031 81.972656 76.214844 Z M 81.972656 76.214844 "/><path style=" stroke:none;fill-rule:nonzero;fill:#4b5563;fill-opacity:1;" d="M 99.066406 110.058594 C 99.886719 109.503906 100.070312 108.410156 99.476562 107.617188 C 97.460938 104.925781 92.503906 99.265625 85.792969 98.132812 C 79.082031 97 72.542969 100.722656 69.757812 102.601562 C 68.933594 103.15625 68.75 104.25 69.34375 105.042969 C 71.359375 107.734375 76.316406 113.394531 83.027344 114.527344 C 89.738281 115.65625 96.277344 111.9375 99.066406 110.058594 Z M 99.066406 110.058594 "/><path style=" stroke:none;fill-rule:nonzero;fill:#4b5563;fill-opacity:1;" d="M 90.5 124.023438 C 87.613281 125.550781 81.539062 129.398438 79.453125 135.570312 C 77.371094 141.742188 79.871094 148.484375 81.238281 151.453125 C 81.65625 152.351562 82.710938 152.707031 83.585938 152.246094 C 86.476562 150.714844 92.550781 146.867188 94.632812 140.695312 C 96.71875 134.523438 94.21875 127.785156 92.847656 124.816406 C 92.433594 123.914062 91.378906 123.558594 90.5 124.023438 Z M 90.5 124.023438 "/><path style=" stroke:none;fill-rule:nonzero;fill:#4b5563;fill-opacity:1;" d="M 69.519531 119.523438 C 65.554688 119.140625 55.433594 118.828125 48.394531 124.492188 C 41.351562 130.160156 39.492188 140.113281 39.019531 144.066406 C 38.902344 145.03125 39.582031 145.875 40.546875 145.96875 C 44.511719 146.355469 54.632812 146.664062 61.671875 141 C 68.714844 135.332031 70.574219 125.382812 71.046875 121.425781 C 71.164062 120.460938 70.484375 119.617188 69.519531 119.523438 Z M 69.519531 119.523438 "/><g clip-rule="nonzero" clip-path="url(#75061f5440)"><path style=" stroke:none;fill-rule:nonzero;fill:#4b5563;fill-opacity:1;" d="M 57.203125 102.777344 C 54.433594 100.027344 47.042969 93.601562 38.289062 93.515625 C 29.539062 93.433594 22.027344 99.714844 19.203125 102.417969 C 18.5 103.089844 18.492188 104.171875 19.179688 104.855469 C 21.949219 107.609375 29.339844 114.035156 38.09375 114.117188 C 46.847656 114.203125 54.359375 107.917969 57.179688 105.21875 C 57.882812 104.546875 57.894531 103.464844 57.203125 102.777344 Z M 57.203125 102.777344 "/></g><path style=" stroke:none;fill-rule:nonzero;fill:#4b5563;fill-opacity:1;" d="M 159.96875 85.359375 C 164.347656 85.816406 176.460938 86.347656 184.832031 79.609375 C 193.203125 72.875 195.273438 60.929688 195.765625 56.554688 C 195.871094 55.605469 195.203125 54.773438 194.25 54.675781 C 189.875 54.21875 177.761719 53.6875 169.390625 60.421875 C 161.019531 67.15625 158.945312 79.101562 158.457031 83.476562 C 158.351562 84.429688 159.015625 85.257812 159.96875 85.359375 Z M 159.96875 85.359375 "/><path style=" stroke:none;fill-rule:nonzero;fill:#4b5563;fill-opacity:1;" d="M 139.21875 67.917969 C 142.960938 66.800781 152.132812 63.375 156.386719 55.726562 C 160.644531 48.074219 158.710938 38.472656 157.6875 34.707031 C 157.433594 33.765625 156.484375 33.242188 155.554688 33.519531 C 151.8125 34.636719 142.636719 38.0625 138.382812 45.710938 C 134.128906 53.363281 136.058594 62.960938 137.085938 66.730469 C 137.339844 67.671875 138.285156 68.195312 139.21875 67.917969 Z M 139.21875 67.917969 "/><path style=" stroke:none;fill-rule:nonzero;fill:#4b5563;fill-opacity:1;" d="M 122.640625 91.871094 C 125.707031 92.628906 132.398438 93.722656 137.761719 90.699219 C 143.125 87.679688 145.65625 81.386719 146.597656 78.375 C 146.890625 77.425781 146.339844 76.453125 145.378906 76.214844 C 142.3125 75.457031 135.625 74.363281 130.257812 77.386719 C 124.894531 80.40625 122.367188 86.699219 121.425781 89.710938 C 121.128906 90.65625 121.679688 91.632812 122.640625 91.871094 Z M 122.640625 91.871094 "/><path style=" stroke:none;fill-rule:nonzero;fill:#4b5563;fill-opacity:1;" d="M 157.59375 102.601562 C 154.808594 100.722656 148.265625 97 141.554688 98.132812 C 134.847656 99.265625 129.890625 104.925781 127.875 107.617188 C 127.277344 108.410156 127.464844 109.503906 128.285156 110.058594 C 131.070312 111.9375 137.613281 115.65625 144.324219 114.527344 C 151.03125 113.394531 155.988281 107.734375 158.003906 105.042969 C 158.601562 104.25 158.414062 103.15625 157.59375 102.601562 Z M 157.59375 102.601562 "/><path style=" stroke:none;fill-rule:nonzero;fill:#4b5563;fill-opacity:1;" d="M 136.847656 124.023438 C 135.972656 123.558594 134.917969 123.914062 134.503906 124.816406 C 133.132812 127.785156 130.632812 134.523438 132.71875 140.695312 C 134.800781 146.867188 140.875 150.714844 143.765625 152.246094 C 144.640625 152.707031 145.695312 152.351562 146.109375 151.453125 C 147.480469 148.484375 149.980469 141.742188 147.894531 135.570312 C 145.8125 129.398438 139.738281 125.550781 136.847656 124.023438 Z M 136.847656 124.023438 "/><path style=" stroke:none;fill-rule:nonzero;fill:#4b5563;fill-opacity:1;" d="M 178.957031 124.492188 C 171.914062 118.828125 161.796875 119.140625 157.832031 119.523438 C 156.863281 119.617188 156.1875 120.460938 156.300781 121.425781 C 156.773438 125.382812 158.636719 135.332031 165.675781 141 C 172.71875 146.664062 182.835938 146.355469 186.800781 145.96875 C 187.769531 145.875 188.445312 145.03125 188.332031 144.066406 C 187.859375 140.113281 186 130.160156 178.957031 124.492188 Z M 178.957031 124.492188 "/><g clip-rule="nonzero" clip-path="url(#036d2f6727)"><path style=" stroke:none;fill-rule:nonzero;fill:#4b5563;fill-opacity:1;" d="M 208.144531 102.417969 C 205.324219 99.714844 197.8125 93.433594 189.058594 93.515625 C 180.304688 93.601562 172.914062 100.027344 170.144531 102.777344 C 169.457031 103.464844 169.46875 104.546875 170.167969 105.21875 C 172.992188 107.917969 180.503906 114.203125 189.257812 114.117188 C 198.011719 114.035156 205.402344 107.609375 208.167969 104.855469 C 208.859375 104.171875 208.847656 103.089844 208.144531 102.417969 Z M 208.144531 102.417969 "/></g><g clip-rule="nonzero" clip-path="url(#f64643c7f5)"><path style=" stroke:none;fill-rule:nonzero;fill:#4b5563;fill-opacity:1;" d="M 119.285156 107.382812 C 119.15625 104.378906 116.679688 102.023438 113.675781 102.023438 C 110.671875 102.023438 108.195312 104.378906 108.066406 107.382812 C 107.320312 124.507812 104.621094 177.949219 99.160156 198.261719 C 98.4375 200.945312 100.386719 203.585938 103.160156 203.585938 L 124.1875 203.585938 C 126.964844 203.585938 128.910156 200.945312 128.191406 198.261719 C 122.730469 177.949219 120.027344 124.507812 119.285156 107.382812 Z M 119.285156 107.382812 "/></g></g></svg>